<svg width="43" height="38" viewBox="0 0 43 38" fill="none" xmlns="http://www.w3.org/2000/svg">
<path d="M6.84083 13.4034C6.70613 13.6054 6.72858 15.5082 6.75664 16.4343C10.7979 14.975 19.4023 11.8711 21.4903 11.1302L32.0985 14.9188L32.1827 14.8346C32.2669 14.6101 32.5195 14.1443 32.8563 14.0769C33.193 14.0095 33.5017 13.4314 33.614 13.1508C33.614 13.0947 33.6308 12.8982 33.6982 12.5614C33.7655 12.2247 34.063 12.0282 34.2033 11.9721C34.3717 11.8879 34.7085 11.6353 34.7085 11.2986C34.7085 10.9618 35.1575 9.97954 35.382 9.53052L35.7188 8.85698C35.7749 8.66053 35.9209 8.18344 36.0556 7.84667C36.1903 7.5099 36.5046 7.14507 36.6449 7.00475C36.7852 7.00475 37.1669 6.97107 37.571 6.83636C37.9752 6.70165 38.3007 6.21895 38.413 5.99444V4.81575L38.1604 4.2264C38.1323 4.17027 38.0257 4.05802 37.8236 4.05802C37.6216 4.05802 37.4027 3.94576 37.3185 3.88963L37.0659 3.21609C37.0378 3.1319 36.9649 2.86249 36.8975 2.45836C36.8133 1.95321 36.7291 1.95321 36.6449 1.53225C36.5776 1.19548 36.224 0.774516 36.0556 0.606131C35.9994 0.550003 35.8535 0.420908 35.7188 0.353554C35.5504 0.269362 34.7927 0.269362 34.7085 0.437746C34.6411 0.572454 34.3998 0.718387 34.2875 0.774516C34.1472 0.80258 33.8666 0.875546 33.8666 0.9429C33.8666 1.02709 33.7824 0.9429 33.0247 1.53225C32.4185 2.00372 31.6285 1.7287 31.3092 1.53225C31.0952 1.41999 30.5326 1.17864 29.9937 1.11128C29.4549 1.04393 28.5344 1.13935 28.1415 1.19548C28.1134 1.30773 27.9394 1.53225 27.468 1.53225C26.8786 1.53225 26.2893 1.70063 26.2051 1.78482C26.1209 1.86902 25.9525 2.20579 25.1948 2.54255C24.437 2.87932 23.5951 2.54255 23.4267 2.62675C23.292 2.6941 22.8093 2.48643 22.5848 2.37417L21.9955 1.86902L21.4903 1.44805C21.378 1.39193 21.0693 1.26283 20.7326 1.19548C20.3958 1.12812 19.5819 1.67257 19.2171 1.95321H18.7961C18.5436 1.95321 18.0384 2.20579 18.0384 2.12159C18.0384 2.05424 17.1965 1.25161 16.7755 0.858708C16.5791 0.690323 16.1693 0.353554 16.102 0.353554C16.0346 0.353554 15.4004 0.241297 15.0917 0.185169C14.811 0.100977 14.1992 -0.0505693 13.9972 0.0167846C13.7446 0.100977 12.9027 0.269362 12.5659 0.269362C12.2965 0.269362 11.9485 0.32549 11.8082 0.353554L11.303 0.606131C11.2469 0.662259 11.101 0.774516 10.9663 0.774516C10.8316 0.774516 10.6856 0.9429 10.6295 1.02709V2.28998L9.53499 3.55286L9.28242 5.3209C9.17016 5.74186 8.97932 6.65114 9.11403 6.92056C9.24874 7.18997 9.56306 8.26763 9.70338 8.77279C9.53499 9.02536 9.18139 9.59787 9.11403 9.86729L8.94565 10.5408C8.66501 10.8776 8.08689 11.6185 8.01953 11.8879C7.95218 12.1573 7.54244 12.6737 7.34599 12.8982C7.23373 12.9824 6.97554 13.2013 6.84083 13.4034Z" fill="#10B981"/>
<rect x="40.7852" y="19.606" width="1.03254" height="10.4115" fill="#10B981"/>
<path d="M40.6747 37.8905C39.2566 37.4794 39.9003 33.8177 40.7177 32.1685H41.9654C42.9549 34.3196 43.6432 38.7509 40.6747 37.8905Z" fill="#10B981"/>
<ellipse cx="41.3016" cy="31.351" rx="1.46277" ry="1.5058" fill="#10B981"/>
<path d="M0 19.7779L21.5114 12.292L42.7646 19.7779L21.5114 28.1243L0 19.7779Z" fill="#10B981"/>
<path d="M36.3118 23.3062L21.5119 29.3293L6.54004 23.6503V29.9888C16.2632 40.1711 34.7199 33.9758 36.3118 29.3293V23.3062Z" fill="#10B981"/>
</svg>
